<svg xmlns="http://www.w3.org/2000/svg" viewBox="0 0 1247 478">
<rect width="1247" height="478" fill="white"/>
<text x="30" y="79.0" font-family="Menlo,monospace" font-size="13" fill="#999">poppins</text>
<g transform="translate(150.0,30.0) scale(0.9032) translate(-3.50,73.50)"><path fill="#000" d="M31.5 -28.200000000000003H18.900000000000002V0.0H7.5V-69.5H31.5Q39.5 -69.5 45.05 -66.75Q50.6 -64.0 53.35 -59.3Q56.1 -54.6 56.1 -48.800000000000004Q56.1 -43.5 53.6 -38.8Q51.1 -34.1 45.6 -31.150000000000002Q40.1 -28.200000000000003 31.5 -28.200000000000003ZM44.400000000000006 -48.800000000000004Q44.400000000000006 -60.2 31.5 -60.2H18.900000000000002V-37.5H31.5Q38.0 -37.5 41.2 -40.45Q44.400000000000006 -43.400000000000006 44.400000000000006 -48.800000000000004Z M115.1 0.0 99.1 -27.8H90.4V0.0H79.0V-69.5H103.0Q111.0 -69.5 116.55 -66.7Q122.1 -63.900000000000006 124.85 -59.2Q127.6 -54.5 127.6 -48.7Q127.6 -41.900000000000006 123.65 -36.35Q119.7 -30.8 111.5 -28.8L128.7 0.0ZM90.4 -36.9H103.0Q109.4 -36.9 112.65 -40.1Q115.9 -43.300000000000004 115.9 -48.7Q115.9 -54.1 112.7 -57.150000000000006Q109.5 -60.2 103.0 -60.2H90.4Z M165.6 -69.5V0.0H154.2V-69.5Z M265.8 -69.5V0.0H254.39999999999998V-47.6L233.2 0.0H225.3L204.0 -47.6V0.0H192.6V-69.5H204.9L229.3 -15.0L253.6 -69.5Z M304.2 -69.5V0.0H292.8V-69.5Z M376.1 -69.5V-60.2H357.6V0.0H346.20000000000005V-60.2H327.6V-69.5Z M411.0 -69.5V0.0H399.6V-69.5Z M497.9 -69.5 471.8 0.0H458.6L432.4 -69.5H444.6L465.2 -11.700000000000001L485.9 -69.5Z"/></g>
<g transform="translate(709.0,30.0) scale(0.8850) translate(-3.50,74.40)"><path fill="#000" d="M63.0 -69.5V0.0H51.6V-30.400000000000002H18.900000000000002V0.0H7.5V-69.5H18.900000000000002V-39.7H51.6V-69.5Z M131.9 -14.200000000000001H102.8L97.8 0.0H85.9L110.8 -69.60000000000001H124.0L148.9 0.0H136.9ZM128.7 -23.5 117.4 -55.800000000000004 106.0 -23.5Z M207.79999999999998 0.0 191.79999999999998 -27.8H183.1V0.0H171.7V-69.5H195.7Q203.7 -69.5 209.25 -66.7Q214.79999999999998 -63.900000000000006 217.54999999999998 -59.2Q220.29999999999998 -54.5 220.29999999999998 -48.7Q220.29999999999998 -41.900000000000006 216.34999999999997 -36.35Q212.39999999999998 -30.8 204.2 -28.8L221.39999999999998 0.0ZM183.1 -36.9H195.7Q202.1 -36.9 205.35 -40.1Q208.6 -43.300000000000004 208.6 -48.7Q208.6 -54.1 205.39999999999998 -57.150000000000006Q202.2 -60.2 195.7 -60.2H183.1Z M320.09999999999997 -69.5V0.0H308.7V-47.6L287.5 0.0H279.59999999999997L258.29999999999995 -47.6V0.0H246.89999999999998V-69.5H259.2L283.59999999999997 -15.0L307.9 -69.5Z M343.29999999999995 -34.9Q343.29999999999995 -45.1 348.04999999999995 -53.2Q352.79999999999995 -61.300000000000004 360.94999999999993 -65.85000000000001Q369.09999999999997 -70.4 378.79999999999995 -70.4Q388.59999999999997 -70.4 396.75 -65.85000000000001Q404.9 -61.300000000000004 409.59999999999997 -53.2Q414.29999999999995 -45.1 414.29999999999995 -34.9Q414.29999999999995 -24.700000000000003 409.59999999999997 -16.55Q404.9 -8.4 396.75 -3.85Q388.59999999999997 0.7000000000000001 378.79999999999995 0.7000000000000001Q369.09999999999997 0.7000000000000001 360.94999999999993 -3.85Q352.79999999999995 -8.4 348.04999999999995 -16.55Q343.29999999999995 -24.700000000000003 343.29999999999995 -34.9ZM402.59999999999997 -34.9Q402.59999999999997 -42.6 399.54999999999995 -48.400000000000006Q396.5 -54.2 391.1 -57.300000000000004Q385.7 -60.400000000000006 378.79999999999995 -60.400000000000006Q371.9 -60.400000000000006 366.5 -57.300000000000004Q361.09999999999997 -54.2 358.04999999999995 -48.400000000000006Q354.99999999999994 -42.6 354.99999999999994 -34.9Q354.99999999999994 -27.200000000000003 358.04999999999995 -21.35Q361.09999999999997 -15.5 366.5 -12.350000000000001Q371.9 -9.200000000000001 378.79999999999995 -9.200000000000001Q385.7 -9.200000000000001 391.1 -12.350000000000001Q396.5 -15.5 399.54999999999995 -21.35Q402.59999999999997 -27.200000000000003 402.59999999999997 -34.9Z M494.6 0.0H483.2L448.9 -51.900000000000006V0.0H437.5V-69.60000000000001H448.9L483.2 -17.8V-69.60000000000001H494.6Z M533.0 -69.5V0.0H521.6V-69.5Z"/></g>
<text x="30" y="195.0" font-family="Menlo,monospace" font-size="13" fill="#999">jost</text>
<g transform="translate(150.0,146.0) scale(0.8199) translate(-3.75,77.50)"><path fill="#000" d="M7.75 -70.0V0.0H19.625V-70.0ZM14.825000000000001 -59.625H28.875Q35.0 -59.625 38.712500000000006 -56.7625Q42.425000000000004 -53.900000000000006 42.425000000000004 -48.25Q42.425000000000004 -42.675000000000004 38.712500000000006 -39.775000000000006Q35.0 -36.875 28.875 -36.875H14.825000000000001V-26.5H28.875Q36.550000000000004 -26.5 42.175000000000004 -29.137500000000003Q47.800000000000004 -31.775000000000002 50.925000000000004 -36.6875Q54.050000000000004 -41.6 54.050000000000004 -48.25Q54.050000000000004 -55.0 50.925000000000004 -59.862500000000004Q47.800000000000004 -64.72500000000001 42.175000000000004 -67.36250000000001Q36.550000000000004 -70.0 28.875 -70.0H14.825000000000001Z M92.05000000000001 -33.375 114.30000000000001 0.0H128.55L104.80000000000001 -33.375ZM77.55000000000001 -70.0V0.0H89.42500000000001V-70.0ZM84.62500000000001 -59.75H98.67500000000001Q102.75000000000001 -59.75 105.78750000000002 -58.3625Q108.82500000000002 -56.975 110.52500000000002 -54.3625Q112.22500000000002 -51.75 112.22500000000002 -48.0Q112.22500000000002 -44.275000000000006 110.52500000000002 -41.650000000000006Q108.82500000000002 -39.025000000000006 105.78750000000002 -37.6375Q102.75000000000001 -36.25 98.67500000000001 -36.25H84.62500000000001V-26.5H99.17500000000001Q106.85000000000002 -26.5 112.47500000000002 -29.1875Q118.10000000000002 -31.875 121.22500000000002 -36.8Q124.35000000000002 -41.725 124.35000000000002 -48.25Q124.35000000000002 -54.875 121.22500000000002 -59.75Q118.10000000000002 -64.625 112.47500000000002 -67.3125Q106.85000000000002 -70.0 99.17500000000001 -70.0H84.62500000000001Z M149.05 -70.0V0.0H161.05V-70.0Z M201.60000000000002 -42.625 222.925 -6.5 244.25 -42.625 249.05 0.0H261.3L251.675 -73.5L222.925 -26.025000000000002L194.175 -73.5L184.55 0.0H196.8Z M284.85 -70.0V0.0H296.85V-70.0Z M317.35 -59.125H335.85V0.0H347.725V-59.125H366.225V-70.0H317.35Z M386.75 -70.0V0.0H398.75V-70.0Z M453.0 -20.8 432.375 -70.0H418.75L453.0 3.875L487.25 -70.0H473.625Z"/></g>
<g transform="translate(709.0,146.0) scale(0.8199) translate(-3.75,77.88)"><path fill="#000" d="M12.450000000000001 -32.125H62.45V-43.0H12.450000000000001ZM54.75 -70.0V0.0H66.625V-70.0ZM7.75 -70.0V0.0H19.625V-70.0Z M102.60000000000001 -18.0H139.60000000000002L137.35000000000002 -27.950000000000003H104.85000000000001ZM120.9 -50.2 132.05 -24.225 132.275 -21.3 141.775 0.0H155.15L120.9 -73.875L86.65 0.0H100.025L109.72500000000001 -21.925L109.9 -24.525000000000002Z M189.65 -33.375 211.9 0.0H226.15L202.4 -33.375ZM175.15 -70.0V0.0H187.025V-70.0ZM182.225 -59.75H196.275Q200.35000000000002 -59.75 203.38750000000002 -58.3625Q206.425 -56.975 208.125 -54.3625Q209.82500000000002 -51.75 209.82500000000002 -48.0Q209.82500000000002 -44.275000000000006 208.125 -41.650000000000006Q206.425 -39.025000000000006 203.38750000000002 -37.6375Q200.35000000000002 -36.25 196.275 -36.25H182.225V-26.5H196.775Q204.45000000000002 -26.5 210.07500000000002 -29.1875Q215.70000000000002 -31.875 218.82500000000002 -36.8Q221.95000000000002 -41.725 221.95000000000002 -48.25Q221.95000000000002 -54.875 218.82500000000002 -59.75Q215.70000000000002 -64.625 210.07500000000002 -67.3125Q204.45000000000002 -70.0 196.775 -70.0H182.225Z M259.7 -42.625 281.025 -6.5 302.35 -42.625 307.15 0.0H319.4L309.775 -73.5L281.025 -26.025000000000002L252.275 -73.5L242.65 0.0H254.9Z M351.52500000000003 -35.0Q351.52500000000003 -42.225 354.58750000000003 -47.837500000000006Q357.65000000000003 -53.45 363.02500000000003 -56.6875Q368.40000000000003 -59.925000000000004 375.32500000000005 -59.925000000000004Q382.40000000000003 -59.925000000000004 387.725 -56.6875Q393.05000000000007 -53.45 396.0875000000001 -47.837500000000006Q399.12500000000006 -42.225 399.12500000000006 -35.0Q399.12500000000006 -27.8 396.06250000000006 -22.175Q393.00000000000006 -16.55 387.6625 -13.3125Q382.32500000000005 -10.075000000000001 375.32500000000005 -10.075000000000001Q368.40000000000003 -10.075000000000001 363.02500000000003 -13.3125Q357.65000000000003 -16.55 354.58750000000003 -22.175Q351.52500000000003 -27.8 351.52500000000003 -35.0ZM338.95000000000005 -35.0Q338.95000000000005 -27.200000000000003 341.65000000000003 -20.512500000000003Q344.35 -13.825000000000001 349.25 -8.912500000000001Q354.15000000000003 -4.0 360.8125 -1.25Q367.475 1.5 375.32500000000005 1.5Q383.25000000000006 1.5 389.87500000000006 -1.25Q396.50000000000006 -4.0 401.4000000000001 -8.912500000000001Q406.30000000000007 -13.825000000000001 409.00000000000006 -20.512500000000003Q411.70000000000005 -27.200000000000003 411.70000000000005 -35.0Q411.70000000000005 -42.875 408.98750000000007 -49.4875Q406.27500000000003 -56.1 401.35 -60.962500000000006Q396.42500000000007 -65.825 389.81250000000006 -68.5375Q383.20000000000005 -71.25 375.32500000000005 -71.25Q367.57500000000005 -71.25 360.92500000000007 -68.5375Q354.27500000000003 -65.825 349.35 -60.962500000000006Q344.42500000000007 -56.1 341.68750000000006 -49.4875Q338.95000000000005 -42.875 338.95000000000005 -35.0Z M486.37500000000006 -70.0V-23.0L435.25000000000006 -73.5V0.0H446.87500000000006V-47.0L498.00000000000006 3.5V-70.0Z M525.5500000000001 -70.0V0.0H537.5500000000001V-70.0Z"/></g>
<text x="30" y="311.0" font-family="Menlo,monospace" font-size="13" fill="#999">outfit</text>
<g transform="translate(150.0,262.0) scale(0.8974) translate(-3.60,74.00)"><path fill="#000" d="M15.5 -26.400000000000002V-36.4H33.0Q36.55491329479769 -36.4 39.32774566473989 -37.83030303030303Q42.10057803468209 -39.260606060606065 43.70028901734105 -41.906666666666666Q45.300000000000004 -44.552727272727275 45.300000000000004 -48.2Q45.300000000000004 -51.84727272727273 43.70028901734105 -54.49333333333334Q42.10057803468209 -57.13939393939394 39.32774566473989 -58.56969696969697Q36.55491329479769 -60.0 33.0 -60.0H15.5V-70.0H33.6Q40.2 -70.0 45.45 -67.30000000000001Q50.7 -64.60000000000001 53.75 -59.71951219512196Q56.800000000000004 -54.83902439024391 56.800000000000004 -48.21951219512195Q56.800000000000004 -41.6 53.75 -36.7Q50.7 -31.8 45.45 -29.1Q40.2 -26.400000000000002 33.6 -26.400000000000002ZM7.6000000000000005 0.0V-70.0H19.1V0.0Z M87.9 -29.700000000000003V-39.2H105.60000000000001Q110.9 -39.2 113.85000000000001 -41.95Q116.80000000000001 -44.7 116.80000000000001 -49.6Q116.80000000000001 -54.0 113.9 -57.0Q111.0 -60.0 105.70000000000002 -60.0H87.9V-70.0H106.20000000000002Q112.80000000000001 -70.0 117.80000000000001 -67.35Q122.80000000000001 -64.7 125.55000000000001 -60.150000000000006Q128.3 -55.6 128.3 -49.800000000000004Q128.3 -43.7 125.55000000000001 -39.2Q122.80000000000001 -34.7 117.80000000000001 -32.2Q112.80000000000001 -29.700000000000003 106.20000000000002 -29.700000000000003ZM80.0 0.0V-70.0H91.5V0.0ZM118.4 0.0 93.9 -30.400000000000002 104.60000000000001 -34.300000000000004 132.9 0.0Z M154.8 0.0V-70.0H166.3V0.0Z M193.50000000000003 0.0V-70.0H201.50000000000003L230.60000000000002 -22.1H225.40000000000003L254.50000000000006 -70.0H262.50000000000006V0.0H251.00000000000006V-49.800000000000004L253.60000000000002 -49.1L232.00000000000003 -13.600000000000001H224.00000000000003L202.40000000000003 -49.1L205.00000000000003 -49.800000000000004V0.0Z M289.70000000000005 0.0V-70.0H301.20000000000005V0.0Z M346.0 0.0V-68.0H357.5V0.0ZM323.2 -59.5V-70.0H380.3V-59.5Z M402.30000000000007 0.0V-70.0H413.80000000000007V0.0Z M464.1 0.0 435.8 -70.0H448.3L470.40000000000003 -13.3H466.00000000000006L488.30000000000007 -70.0H500.6L472.1 0.0Z"/></g>
<g transform="translate(709.0,262.0) scale(0.8750) translate(-3.60,75.00)"><path fill="#000" d="M7.6000000000000005 0.0V-70.0H19.1V0.0ZM52.1 0.0V-70.0H63.6V0.0ZM15.5 -31.0V-41.5H54.6V-31.0Z M85.60000000000001 0.0 114.4 -70.0H122.4L151.0 0.0H138.60000000000002L116.2 -56.7H120.4L97.80000000000001 0.0ZM99.80000000000001 -13.5V-23.5H136.9V-13.5Z M180.9 -29.700000000000003V-39.2H198.60000000000002Q203.9 -39.2 206.85000000000002 -41.95Q209.8 -44.7 209.8 -49.6Q209.8 -54.0 206.9 -57.0Q204.0 -60.0 198.70000000000002 -60.0H180.9V-70.0H199.20000000000002Q205.8 -70.0 210.8 -67.35Q215.8 -64.7 218.55 -60.150000000000006Q221.3 -55.6 221.3 -49.800000000000004Q221.3 -43.7 218.55 -39.2Q215.8 -34.7 210.8 -32.2Q205.8 -29.700000000000003 199.20000000000002 -29.700000000000003ZM173.0 0.0V-70.0H184.5V0.0ZM211.4 0.0 186.9 -30.400000000000002 197.60000000000002 -34.300000000000004 225.9 0.0Z M247.8 0.0V-70.0H255.8L284.90000000000003 -22.1H279.70000000000005L308.8 -70.0H316.8V0.0H305.3V-49.800000000000004L307.90000000000003 -49.1L286.3 -13.600000000000001H278.3L256.70000000000005 -49.1L259.3 -49.800000000000004V0.0Z M376.20000000000005 1.0Q368.70000000000005 1.0 362.20000000000005 -1.8000000000000003Q355.70000000000005 -4.6000000000000005 350.80000000000007 -9.55Q345.90000000000003 -14.5 343.15000000000003 -21.05Q340.40000000000003 -27.6 340.40000000000003 -35.1Q340.40000000000003 -42.6 343.15000000000003 -49.1Q345.90000000000003 -55.6 350.75 -60.55Q355.6 -65.5 362.05000000000007 -68.25Q368.50000000000006 -71.0 376.00000000000006 -71.0Q383.50000000000006 -71.0 389.95000000000005 -68.25Q396.40000000000003 -65.5 401.30000000000007 -60.55Q406.20000000000005 -55.6 408.95000000000005 -49.05Q411.70000000000005 -42.5 411.70000000000005 -35.0Q411.70000000000005 -27.5 408.95000000000005 -20.95Q406.20000000000005 -14.4 401.35 -9.5Q396.50000000000006 -4.6000000000000005 390.05000000000007 -1.8000000000000003Q383.6 1.0 376.20000000000005 1.0ZM376.00000000000006 -10.0Q383.1 -10.0 388.45000000000005 -13.200000000000001Q393.80000000000007 -16.400000000000002 396.85 -22.050000000000004Q399.90000000000003 -27.700000000000003 399.90000000000003 -35.1Q399.90000000000003 -40.6 398.15000000000003 -45.150000000000006Q396.40000000000003 -49.7 393.20000000000005 -53.050000000000004Q390.00000000000006 -56.400000000000006 385.6500000000001 -58.2Q381.30000000000007 -60.0 376.00000000000006 -60.0Q369.00000000000006 -60.0 363.65000000000003 -56.85Q358.3 -53.7 355.25 -48.1Q352.20000000000005 -42.5 352.20000000000005 -35.1Q352.20000000000005 -29.6 353.95000000000005 -24.950000000000003Q355.70000000000005 -20.3 358.85 -17.0Q362.00000000000006 -13.700000000000001 366.40000000000003 -11.850000000000001Q370.8 -10.0 376.00000000000006 -10.0Z M435.4000000000001 0.0V-70.0H443.4000000000001L446.9000000000001 -56.800000000000004V0.0ZM483.9000000000001 0.0 442.00000000000006 -54.7 443.4000000000001 -70.0 485.30000000000007 -15.3ZM483.9000000000001 0.0 480.4000000000001 -12.3V-70.0H491.9000000000001V0.0Z M519.1 0.0V-70.0H530.6V0.0Z"/></g>
<text x="30" y="427.0" font-family="Menlo,monospace" font-size="13" fill="#999">montserrat</text>
<g transform="translate(150.0,378.0) scale(0.8974) translate(-6.51,74.00)"><path fill="#000" d="M10.51311818943839 0.0V-70.0H37.84450963956413Q46.9512154233026 -70.0 53.48124476110646 -67.08109807208717Q60.01127409891032 -64.16219614417435 63.52240150880135 -58.68216680637049Q67.03352891869238 -53.20213746856664 67.03352891869238 -45.564333612740995Q67.03352891869238 -38.026529756915345 63.52240150880135 -32.53872590108969Q60.01127409891032 -27.050922045264045 53.48124476110646 -24.132020117351217Q46.9512154233026 -21.21311818943839 37.84450963956413 -21.21311818943839H16.004568315171834L20.45150880134116 -25.91341156747695V0.0ZM20.45150880134116 -24.931098072087178 16.004568315171834 -29.869195305951383H37.53780385582565Q47.13537300922045 -29.869195305951383 52.07303017602682 -33.98352891869237Q57.010687342833194 -38.097862531433364 57.010687342833194 -45.564333612740995Q57.010687342833194 -53.13080469404862 52.07303017602682 -57.237363788767816Q47.13537300922045 -61.34392288348701 37.53780385582565 -61.34392288348701H16.004568315171834L20.45150880134116 -66.28202011735122Z M94.71311818943839 0.0V-70.0H122.04450963956413Q135.6201173512154 -70.0 143.4268231349539 -63.527745180217934Q151.2335289186924 -57.055490360435876 151.2335289186924 -45.564333612740995Q151.2335289186924 -38.026529756915345 147.72240150880137 -32.5809513830679Q144.21127409891034 -27.13537300922045 137.68124476110648 -24.216471081307628Q131.1512154233026 -21.297569153394804 122.04450963956413 -21.297569153394804H100.20456831517184L104.65150880134117 -25.91341156747695V0.0ZM141.54178541492035 0.0 123.66404023470244 -25.400000000000002H134.44023470243087L152.4024308466052 0.0ZM104.65150880134117 -24.931098072087178 100.20456831517184 -29.78474434199497H121.73780385582566Q131.33537300922046 -29.78474434199497 136.27303017602682 -33.941303436714165Q141.21068734283318 -38.097862531433364 141.21068734283318 -45.564333612740995Q141.21068734283318 -53.13080469404862 136.27303017602682 -57.237363788767816Q131.33537300922046 -61.34392288348701 121.73780385582566 -61.34392288348701H100.20456831517184L104.65150880134117 -66.28202011735122Z M179.4131181894384 0.0V-70.0H189.35150880134117V0.0Z M222.4131181894384 0.0V-70.0H230.61584241408215L261.97347024308465 -17.120410729253983H257.6109807208718L288.615255658005 -70.0H296.8179798826488L296.90243084660517 0.0H287.3018440905281L287.21739312657166 -54.854610226320204H289.4530595138307L261.90456831517184 -8.46433361274099H257.32652975691536L229.50913663034368 -54.854610226320204H232.0137049455155V0.0Z M329.91311818943836 0.0V-70.0H339.85150880134114V0.0Z M386.7731768650461 0.0V-61.34392288348701H362.79999999999995V-70.0H420.68474434199493V-61.34392288348701H396.71156747694886V0.0Z M443.61311818943835 0.0V-70.0H453.55150880134113V0.0Z M506.8265297569153 0.0 476.0021374685666 -70.0H486.83168482816427L515.0826068734283 -5.400293378038558H508.93109807208714L537.4353730092204 -70.0H547.420410729254L516.6804694048617 0.0Z"/></g>
<g transform="translate(709.0,378.0) scale(0.8793) translate(-6.51,74.81)"><path fill="#000" d="M60.72623637887679 0.0V-70.0H70.66462699077955V0.0ZM10.51311818943839 0.0V-70.0H20.45150880134116V0.0ZM19.529253981559094 -31.221961441743503V-39.8780385582565H61.56404023470243V-31.221961441743503Z M93.08658843252306 0.0 124.82652975691535 -70.0H134.6804694048617L166.5048616932104 0.0H156.0131181894384L127.69115674769489 -64.43080469404862H131.73139145012573L103.40943000838223 0.0ZM106.57347024308467 -17.46860854987427 109.34694048616933 -25.533528918692372H148.70884325230512L151.5667644593462 -17.46860854987427Z M188.9131181894384 0.0V-70.0H216.24450963956414Q229.82011735121543 -70.0 237.6268231349539 -63.527745180217934Q245.4335289186924 -57.055490360435876 245.4335289186924 -45.564333612740995Q245.4335289186924 -38.026529756915345 241.92240150880136 -32.5809513830679Q238.41127409891033 -27.13537300922045 231.88124476110647 -24.216471081307628Q225.35121542330262 -21.297569153394804 216.24450963956414 -21.297569153394804H194.40456831517184L198.85150880134117 -25.91341156747695V0.0ZM235.74178541492037 0.0 217.86404023470243 -25.400000000000002H228.64023470243086L246.60243084660522 0.0ZM198.85150880134117 -24.931098072087178 194.40456831517184 -29.78474434199497H215.93780385582565Q225.53537300922045 -29.78474434199497 230.47303017602684 -33.941303436714165Q235.4106873428332 -38.097862531433364 235.4106873428332 -45.564333612740995Q235.4106873428332 -53.13080469404862 230.47303017602684 -57.237363788767816Q225.53537300922045 -61.34392288348701 215.93780385582565 -61.34392288348701H194.40456831517184L198.85150880134117 -66.28202011735122Z M273.6131181894384 0.0V-70.0H281.81584241408217L313.1734702430847 -17.120410729253983H308.8109807208718L339.81525565800507 -70.0H348.01797988264883L348.1024308466052 0.0H338.5018440905281L338.4173931265717 -54.854610226320204H340.6530595138307L313.10456831517183 -8.46433361274099H308.52652975691535L280.70913663034366 -54.854610226320204H283.21370494551553V0.0Z M412.67172468051945 0.8067057837384746Q404.65229261334395 0.8067057837384746 397.8305679328246 -1.8855196982397315Q391.00884325230516 -4.577745180217938 385.98994132439236 -9.419970662196144Q380.9710393964795 -14.262196144174352 378.1865884325231 -20.76817382443338Q375.40213746856665 -27.27415150469241 375.40213746856665 -35.0Q375.40213746856665 -42.725848495307595 378.1865884325231 -49.231826175566624Q380.9710393964795 -55.73780385582566 386.0006828943692 -60.592215215153274Q391.030326392259 -65.44662657448089 397.8229377141513 -68.12666617910969Q404.6155490360436 -70.80670578373848 412.65335289186925 -70.80670578373848Q420.6911567476949 -70.80670578373848 427.45950693739803 -68.14168598142408Q434.2278571271011 -65.47666617910969 439.2395362752019 -60.64946049944588Q444.2512154233026 -55.82225481978207 447.035666387259 -49.28713327745181Q449.82011735121546 -42.75201173512155 449.82011735121546 -34.99155490360436Q449.82011735121546 -27.231098072087175 447.035666387259 -20.704421626152556Q444.2512154233026 -14.177745180217938 439.2395362752019 -9.350539500554127Q434.2278571271011 -4.523333820890317 427.45950693739803 -1.858314018575921Q420.6911567476949 0.8067057837384746 412.67172468051945 0.8067057837384746ZM412.65335289186925 -8.102724224643756Q418.5021374685667 -8.102724224643756 423.4416286361802 -10.108596244047726Q428.38111980379375 -12.114468263451696 432.04590357331347 -15.765155338766924Q435.71068734283324 -19.41584241408215 437.75398155909477 -24.309023549320727Q439.7972757753563 -29.202204684559305 439.7972757753563 -35.02549463062835Q439.7972757753563 -40.848784576697405 437.7634704314494 -45.70921861302893Q435.7296650875425 -50.56965264936046 432.0608397612791 -54.225020395692425Q428.39201443501577 -57.8803881420244 423.44707595179125 -59.88883195869032Q418.5021374685667 -61.89727577535624 412.65335289186925 -61.89727577535624Q406.8045683151719 -61.89727577535624 401.8400194957477 -59.88609293126159Q396.8754706763235 -57.87491008716693 393.19209574578304 -54.21455731091466Q389.5087208152425 -50.55420453466238 387.4668499298342 -45.68714205195331Q385.42497904442587 -40.820079569244236 385.42497904442587 -35.02787297825162Q385.42497904442587 -29.235666387259013 387.46295816505375 -24.342485252020435Q389.50093728568163 -19.449304116781857 393.1772917777947 -15.769308386974332Q396.8536462699078 -12.089312657166808 401.82910729253985 -10.096018440905283Q406.8045683151719 -8.102724224643756 412.65335289186925 -8.102724224643756Z M477.1131181894384 0.0V-70.0H485.31584241408217L531.5509220452641 -12.5185666387259H527.3262363788768V-70.0H537.2646269907796V0.0H529.0619027661359L482.82682313495394 -57.4814333612741H487.0515088013412V0.0Z M570.3131181894385 0.0V-70.0H580.2515088013412V0.0Z"/></g>
</svg>