<svg xmlns="http://www.w3.org/2000/svg" viewBox="0 0 565.8 89.38">
  <!--
    Harmoni wordmark — Jost Medium, all-caps, tracking 0.16em.
    Outlined paths (no live font needed). Single colour black on transparent.
  -->
  <path fill="#000" d="M10.7 47.75H60.7V36.88H10.7ZM53 9.88V79.88H64.88V9.88ZM6 9.88V79.88H17.88V9.88ZM104.85 61.88H141.85L139.6 51.92H107.1ZM123.15 29.67 134.3 55.65 134.53 58.58 144.03 79.88H157.4L123.15 6L88.9 79.88H102.28L111.98 57.95L112.15 55.35ZM195.9 46.5 218.15 79.88H232.4L208.65 46.5ZM181.4 9.88V79.88H193.28V9.88ZM188.47 20.12H202.53Q206.6 20.12 209.64 21.51Q212.68 22.9 214.38 25.51Q216.08 28.12 216.08 31.88Q216.08 35.6 214.38 38.22Q212.68 40.85 209.64 42.24Q206.6 43.62 202.53 43.62H188.47V53.38H203.03Q210.7 53.38 216.33 50.69Q221.95 48 225.08 43.08Q228.2 38.15 228.2 31.62Q228.2 25 225.08 20.12Q221.95 15.25 216.33 12.56Q210.7 9.88 203.03 9.88H188.47ZM269.95 37.25 291.27 73.38 312.6 37.25 317.4 79.88H329.65L320.02 6.38L291.27 53.85L262.52 6.38L252.9 79.88H265.15ZM365.78 44.88Q365.78 37.65 368.84 32.04Q371.9 26.42 377.28 23.19Q382.65 19.95 389.58 19.95Q396.65 19.95 401.98 23.19Q407.3 26.42 410.34 32.04Q413.38 37.65 413.38 44.88Q413.38 52.08 410.31 57.7Q407.25 63.33 401.91 66.56Q396.58 69.8 389.58 69.8Q382.65 69.8 377.28 66.56Q371.9 63.33 368.84 57.7Q365.78 52.08 365.78 44.88ZM353.2 44.88Q353.2 52.67 355.9 59.36Q358.6 66.05 363.5 70.96Q368.4 75.88 375.06 78.62Q381.73 81.38 389.58 81.38Q397.5 81.38 404.13 78.62Q410.75 75.88 415.65 70.96Q420.55 66.05 423.25 59.36Q425.95 52.67 425.95 44.88Q425.95 37 423.24 30.39Q420.53 23.77 415.6 18.91Q410.68 14.05 404.06 11.34Q397.45 8.62 389.58 8.62Q381.83 8.62 375.18 11.34Q368.53 14.05 363.6 18.91Q358.68 23.77 355.94 30.39Q353.2 37 353.2 44.88ZM504.63 9.88V56.88L453.5 6.38V79.88H465.13V32.88L516.25 83.38V9.88ZM547.8 9.88V79.88H559.8V9.88Z"/>
</svg>
