<svg xmlns="http://www.w3.org/2000/svg" viewBox="0 0 593 116">
  <!--
    Harmoni horizontal lockup — mark + Jost wordmark (tracking 0.16em).
    Wordmark cap-height = 0.60x mark height; gap = 0.32x mark height.
  -->
  <path fill="#000" fill-rule="evenodd" d="M65.78 8L8 108L123.56 108ZM65.78 38L34 93.01L97.56 93.01ZM65.78 53.01L47.01 85.5L84.55 85.5Z"/>
  <path fill="#000" d="M159.2 60.37H197.97V51.94H159.2ZM192 31V85.29H201.21V31ZM155.56 31V85.29H164.76V31ZM232.21 71.33H260.9L259.15 63.61H233.95ZM246.4 46.36 255.05 66.5 255.22 68.77 262.59 85.29H272.96L246.4 28L219.84 85.29H230.21L237.73 68.28L237.87 66.27ZM302.81 59.41 320.07 85.29H331.12L312.7 59.41ZM291.57 31V85.29H300.78V31ZM297.05 38.95H307.95Q311.11 38.95 313.47 40.03Q315.82 41.11 317.14 43.13Q318.46 45.16 318.46 48.06Q318.46 50.95 317.14 52.99Q315.82 55.02 313.47 56.1Q311.11 57.18 307.95 57.18H297.05V64.74H308.34Q314.29 64.74 318.65 62.65Q323.01 60.57 325.44 56.75Q327.86 52.93 327.86 47.87Q327.86 42.73 325.44 38.95Q323.01 35.17 318.65 33.09Q314.29 31 308.34 31H297.05ZM360.23 52.23 376.77 80.25 393.31 52.23 397.03 85.29H406.53L399.06 28.29L376.77 65.11L354.48 28.29L347.01 85.29H356.51ZM434.54 58.15Q434.54 52.54 436.92 48.19Q439.29 43.84 443.46 41.33Q447.63 38.82 453 38.82Q458.48 38.82 462.61 41.33Q466.74 43.84 469.1 48.19Q471.45 52.54 471.45 58.15Q471.45 63.73 469.08 68.09Q466.7 72.45 462.56 74.96Q458.42 77.47 453 77.47Q447.63 77.47 443.46 74.96Q439.29 72.45 436.92 68.09Q434.54 63.73 434.54 58.15ZM424.79 58.15Q424.79 64.19 426.88 69.38Q428.98 74.57 432.78 78.37Q436.58 82.18 441.74 84.32Q446.91 86.45 453 86.45Q459.14 86.45 464.28 84.32Q469.42 82.18 473.22 78.37Q477.02 74.57 479.11 69.38Q481.2 64.19 481.2 58.15Q481.2 52.04 479.1 46.91Q477 41.78 473.18 38.01Q469.36 34.24 464.23 32.14Q459.1 30.04 453 30.04Q446.99 30.04 441.83 32.14Q436.67 34.24 432.85 38.01Q429.04 41.78 426.91 46.91Q424.79 52.04 424.79 58.15ZM542.21 31V67.45L502.57 28.29V85.29H511.58V48.84L551.23 88V31ZM575.69 31V85.29H585V31Z"/>
</svg>
