<svg xmlns="http://www.w3.org/2000/svg" viewBox="0 0 131.56 156.15">
  <!--
    Harmoni stacked lockup — mark above Jost wordmark (tracking 0.16em).
    Wordmark width = mark width; vertical gap = 0.24x mark height.
  -->
  <path fill="#000" fill-rule="evenodd" d="M65.78 8L8 108L123.56 108ZM65.78 38L34 93.01L97.56 93.01ZM65.78 53.01L47.01 85.5L84.55 85.5Z"/>
  <path fill="#000" d="M8.98 140.71H19.41V138.44H8.98ZM17.81 132.81V147.41H20.28V132.81ZM8 132.81V147.41H10.48V132.81ZM28.63 143.66H36.35L35.88 141.58H29.1ZM32.44 136.94 34.77 142.36 34.82 142.97 36.8 147.41H39.59L32.44 132L25.3 147.41H28.09L30.11 142.84L30.15 142.3ZM47.62 140.45 52.27 147.41H55.24L50.28 140.45ZM44.6 132.81V147.41H47.08V132.81ZM46.08 134.95H49.01Q49.86 134.95 50.49 135.24Q51.12 135.53 51.48 136.07Q51.83 136.62 51.83 137.4Q51.83 138.18 51.48 138.72Q51.12 139.27 50.49 139.56Q49.86 139.85 49.01 139.85H46.08V141.89H49.11Q50.71 141.89 51.89 141.32Q53.06 140.76 53.71 139.74Q54.36 138.71 54.36 137.35Q54.36 135.96 53.71 134.95Q53.06 133.93 51.89 133.37Q50.71 132.81 49.11 132.81H46.08ZM63.08 138.52 67.53 146.06 71.97 138.52 72.98 147.41H75.53L73.52 132.08L67.53 141.98L61.53 132.08L59.52 147.41H62.07ZM83.07 140.11Q83.07 138.6 83.71 137.43Q84.35 136.26 85.47 135.59Q86.59 134.91 88.04 134.91Q89.51 134.91 90.62 135.59Q91.74 136.26 92.37 137.43Q93 138.6 93 140.11Q93 141.61 92.36 142.79Q91.72 143.96 90.61 144.64Q89.5 145.31 88.04 145.31Q86.59 145.31 85.47 144.64Q84.35 143.96 83.71 142.79Q83.07 141.61 83.07 140.11ZM80.45 140.11Q80.45 141.74 81.01 143.13Q81.57 144.53 82.6 145.56Q83.62 146.58 85.01 147.15Q86.4 147.73 88.04 147.73Q89.69 147.73 91.07 147.15Q92.45 146.58 93.48 145.56Q94.5 144.53 95.06 143.13Q95.63 141.74 95.63 140.11Q95.63 138.47 95.06 137.09Q94.49 135.71 93.47 134.69Q92.44 133.68 91.06 133.11Q89.68 132.55 88.04 132.55Q86.42 132.55 85.03 133.11Q83.64 133.68 82.62 134.69Q81.59 135.71 81.02 137.09Q80.45 138.47 80.45 140.11ZM112.04 132.81V142.62L101.38 132.08V147.41H103.8V137.61L114.47 148.15V132.81ZM121.05 132.81V147.41H123.56V132.81Z"/>
</svg>
