<svg xmlns="http://www.w3.org/2000/svg" viewBox="0 0 131.56 157.62">
  <!--
    Primitiv stacked lockup — mark above Jost wordmark (tracking 0.16em).
    Wordmark width = mark width; vertical gap = 0.24x mark height.
  -->
  <path fill="#000" d="M8 108L16.87 92.65L25.73 108ZM21.2 85.16L34.73 61.75L61.45 108L34.4 108ZM39.05 54.25L65.78 8L123.56 108L70.1 108Z"/>
  <path fill="#000" d="M8 132.8V148.74H10.7V132.8ZM9.61 135.16H12.81Q14.2 135.16 15.05 135.81Q15.9 136.46 15.9 137.75Q15.9 139.02 15.05 139.68Q14.2 140.34 12.81 140.34H9.61V142.7H12.81Q14.56 142.7 15.84 142.1Q17.12 141.5 17.83 140.38Q18.54 139.26 18.54 137.75Q18.54 136.21 17.83 135.11Q17.12 134 15.84 133.4Q14.56 132.8 12.81 132.8H9.61ZM28.11 141.14 33.17 148.74H36.42L31.01 141.14ZM24.8 132.8V148.74H27.51V132.8ZM26.41 135.13H29.61Q30.54 135.13 31.23 135.45Q31.93 135.76 32.31 136.36Q32.7 136.95 32.7 137.81Q32.7 138.65 32.31 139.25Q31.93 139.85 31.23 140.17Q30.54 140.48 29.61 140.48H26.41V142.7H29.73Q31.48 142.7 32.76 142.09Q34.04 141.48 34.75 140.36Q35.46 139.24 35.46 137.75Q35.46 136.24 34.75 135.13Q34.04 134.02 32.76 133.41Q31.48 132.8 29.73 132.8H26.41ZM41.99 132.8V148.74H44.73V132.8ZM54.87 139.03 59.73 147.26 64.58 139.03 65.68 148.74H68.46L66.27 132L59.73 142.81L53.18 132L50.99 148.74H53.78ZM74.74 132.8V148.74H77.47V132.8ZM83.05 135.27H87.26V148.74H89.96V135.27H94.18V132.8H83.05ZM99.76 132.8V148.74H102.49V132.8ZM115.76 144 111.06 132.8H107.96L115.76 149.62L123.56 132.8H120.45Z"/>
</svg>
