<svg xmlns="http://www.w3.org/2000/svg" viewBox="0 0 519.5 89.38">
  <!--
    Primitiv wordmark — Jost Medium, all-caps, tracking 0.16em.
    Outlined paths (no live font needed). Single colour black on transparent.
  -->
  <path fill="#000" d="M6 9.5V79.5H17.88V9.5ZM13.08 19.88H27.12Q33.25 19.88 36.96 22.74Q40.68 25.6 40.68 31.25Q40.68 36.82 36.96 39.72Q33.25 42.62 27.12 42.62H13.08V53H27.12Q34.8 53 40.43 50.36Q46.05 47.72 49.18 42.81Q52.3 37.9 52.3 31.25Q52.3 24.5 49.18 19.64Q46.05 14.77 40.43 12.14Q34.8 9.5 27.12 9.5H13.08ZM94.3 46.12 116.55 79.5H130.8L107.05 46.12ZM79.8 9.5V79.5H91.68V9.5ZM86.88 19.75H100.93Q105 19.75 108.04 21.14Q111.08 22.52 112.78 25.14Q114.48 27.75 114.48 31.5Q114.48 35.22 112.78 37.85Q111.08 40.47 108.04 41.86Q105 43.25 100.93 43.25H86.88V53H101.43Q109.1 53 114.73 50.31Q120.35 47.62 123.48 42.7Q126.6 37.77 126.6 31.25Q126.6 24.62 123.48 19.75Q120.35 14.88 114.73 12.19Q109.1 9.5 101.43 9.5H86.88ZM155.3 9.5V79.5H167.3V9.5ZM211.85 36.88 233.18 73 254.5 36.88 259.3 79.5H271.55L261.93 6L233.18 53.47L204.43 6L194.8 79.5H207.05ZM299.1 9.5V79.5H311.1V9.5ZM335.6 20.38H354.1V79.5H365.98V20.38H384.48V9.5H335.6ZM409 9.5V79.5H421V9.5ZM479.25 58.7 458.62 9.5H445L479.25 83.38L513.5 9.5H499.88Z"/>
</svg>
