<svg xmlns="http://www.w3.org/2000/svg" viewBox="0 0 557.09 116">
  <!--
    Primitiv horizontal lockup — mark + Jost wordmark (tracking 0.16em).
    Wordmark cap-height = 0.60x mark height; gap = 0.32x mark height.
  -->
  <path fill="#000" d="M8 108L16.87 92.65L25.73 108ZM21.2 85.16L34.73 61.75L61.45 108L34.4 108ZM39.05 54.25L65.78 8L123.56 108L70.1 108Z"/>
  <path fill="#000" d="M155.56 30.71V85H164.76V30.71ZM161.04 38.76H171.94Q176.69 38.76 179.57 40.98Q182.44 43.2 182.44 47.58Q182.44 51.9 179.57 54.15Q176.69 56.4 171.94 56.4H161.04V64.45H171.94Q177.89 64.45 182.25 62.4Q186.61 60.36 189.04 56.55Q191.46 52.74 191.46 47.58Q191.46 42.35 189.04 38.58Q186.61 34.8 182.25 32.76Q177.89 30.71 171.94 30.71H161.04ZM224.03 59.11 241.28 85H252.33L233.91 59.11ZM212.78 30.71V85H221.99V30.71ZM218.27 38.66H229.16Q232.32 38.66 234.68 39.74Q237.04 40.81 238.35 42.84Q239.67 44.87 239.67 47.77Q239.67 50.66 238.35 52.7Q237.04 54.73 234.68 55.81Q232.32 56.89 229.16 56.89H218.27V64.45H229.55Q235.5 64.45 239.87 62.36Q244.23 60.28 246.65 56.46Q249.07 52.64 249.07 47.58Q249.07 42.44 246.65 38.66Q244.23 34.88 239.87 32.8Q235.5 30.71 229.55 30.71H218.27ZM271.33 30.71V85H280.63V30.71ZM315.18 51.94 331.72 79.95 348.25 51.94 351.98 85H361.47L354.01 28L331.72 64.81L309.42 28L301.96 85H311.46ZM382.84 30.71V85H392.14V30.71ZM411.14 39.15H425.49V85H434.7V39.15H449.04V30.71H411.14ZM468.06 30.71V85H477.36V30.71ZM522.53 68.87 506.54 30.71H495.98L522.53 88L549.09 30.71H538.53Z"/>
</svg>
