<svg xmlns="http://www.w3.org/2000/svg" viewBox="6.51 -74.81 577.74 79.61">
  <path fill="#000" d="M60.72623637887679 0.0V-70.0H70.66462699077955V0.0ZM10.51311818943839 0.0V-70.0H20.45150880134116V0.0ZM19.529253981559094 -31.221961441743503V-39.8780385582565H61.56404023470243V-31.221961441743503Z M93.08658843252306 0.0 124.82652975691535 -70.0H134.6804694048617L166.5048616932104 0.0H156.0131181894384L127.69115674769489 -64.43080469404862H131.73139145012573L103.40943000838223 0.0ZM106.57347024308467 -17.46860854987427 109.34694048616933 -25.533528918692372H148.70884325230512L151.5667644593462 -17.46860854987427Z M188.9131181894384 0.0V-70.0H216.24450963956414Q229.82011735121543 -70.0 237.6268231349539 -63.527745180217934Q245.4335289186924 -57.055490360435876 245.4335289186924 -45.564333612740995Q245.4335289186924 -38.026529756915345 241.92240150880136 -32.5809513830679Q238.41127409891033 -27.13537300922045 231.88124476110647 -24.216471081307628Q225.35121542330262 -21.297569153394804 216.24450963956414 -21.297569153394804H194.40456831517184L198.85150880134117 -25.91341156747695V0.0ZM235.74178541492037 0.0 217.86404023470243 -25.400000000000002H228.64023470243086L246.60243084660522 0.0ZM198.85150880134117 -24.931098072087178 194.40456831517184 -29.78474434199497H215.93780385582565Q225.53537300922045 -29.78474434199497 230.47303017602684 -33.941303436714165Q235.4106873428332 -38.097862531433364 235.4106873428332 -45.564333612740995Q235.4106873428332 -53.13080469404862 230.47303017602684 -57.237363788767816Q225.53537300922045 -61.34392288348701 215.93780385582565 -61.34392288348701H194.40456831517184L198.85150880134117 -66.28202011735122Z M273.6131181894384 0.0V-70.0H281.81584241408217L313.1734702430847 -17.120410729253983H308.8109807208718L339.81525565800507 -70.0H348.01797988264883L348.1024308466052 0.0H338.5018440905281L338.4173931265717 -54.854610226320204H340.6530595138307L313.10456831517183 -8.46433361274099H308.52652975691535L280.70913663034366 -54.854610226320204H283.21370494551553V0.0Z M412.67172468051945 0.8067057837384746Q404.65229261334395 0.8067057837384746 397.8305679328246 -1.8855196982397315Q391.00884325230516 -4.577745180217938 385.98994132439236 -9.419970662196144Q380.9710393964795 -14.262196144174352 378.1865884325231 -20.76817382443338Q375.40213746856665 -27.27415150469241 375.40213746856665 -35.0Q375.40213746856665 -42.725848495307595 378.1865884325231 -49.231826175566624Q380.9710393964795 -55.73780385582566 386.0006828943692 -60.592215215153274Q391.030326392259 -65.44662657448089 397.8229377141513 -68.12666617910969Q404.6155490360436 -70.80670578373848 412.65335289186925 -70.80670578373848Q420.6911567476949 -70.80670578373848 427.45950693739803 -68.14168598142408Q434.2278571271011 -65.47666617910969 439.2395362752019 -60.64946049944588Q444.2512154233026 -55.82225481978207 447.035666387259 -49.28713327745181Q449.82011735121546 -42.75201173512155 449.82011735121546 -34.99155490360436Q449.82011735121546 -27.231098072087175 447.035666387259 -20.704421626152556Q444.2512154233026 -14.177745180217938 439.2395362752019 -9.350539500554127Q434.2278571271011 -4.523333820890317 427.45950693739803 -1.858314018575921Q420.6911567476949 0.8067057837384746 412.67172468051945 0.8067057837384746ZM412.65335289186925 -8.102724224643756Q418.5021374685667 -8.102724224643756 423.4416286361802 -10.108596244047726Q428.38111980379375 -12.114468263451696 432.04590357331347 -15.765155338766924Q435.71068734283324 -19.41584241408215 437.75398155909477 -24.309023549320727Q439.7972757753563 -29.202204684559305 439.7972757753563 -35.02549463062835Q439.7972757753563 -40.848784576697405 437.7634704314494 -45.70921861302893Q435.7296650875425 -50.56965264936046 432.0608397612791 -54.225020395692425Q428.39201443501577 -57.8803881420244 423.44707595179125 -59.88883195869032Q418.5021374685667 -61.89727577535624 412.65335289186925 -61.89727577535624Q406.8045683151719 -61.89727577535624 401.8400194957477 -59.88609293126159Q396.8754706763235 -57.87491008716693 393.19209574578304 -54.21455731091466Q389.5087208152425 -50.55420453466238 387.4668499298342 -45.68714205195331Q385.42497904442587 -40.820079569244236 385.42497904442587 -35.02787297825162Q385.42497904442587 -29.235666387259013 387.46295816505375 -24.342485252020435Q389.50093728568163 -19.449304116781857 393.1772917777947 -15.769308386974332Q396.8536462699078 -12.089312657166808 401.82910729253985 -10.096018440905283Q406.8045683151719 -8.102724224643756 412.65335289186925 -8.102724224643756Z M477.1131181894384 0.0V-70.0H485.31584241408217L531.5509220452641 -12.5185666387259H527.3262363788768V-70.0H537.2646269907796V0.0H529.0619027661359L482.82682313495394 -57.4814333612741H487.0515088013412V0.0Z M570.3131181894385 0.0V-70.0H580.2515088013412V0.0Z"/>
</svg>
