<svg xmlns="http://www.w3.org/2000/svg" viewBox="3.75 -77.88 585.80 85.38"><path fill="#000" d="M12.450000000000001 -32.125H62.45V-43.0H12.450000000000001ZM54.75 -70.0V0.0H66.625V-70.0ZM7.75 -70.0V0.0H19.625V-70.0Z M110.60000000000001 -18.0H147.60000000000002L145.35000000000002 -27.950000000000003H112.85000000000001ZM128.9 -50.2 140.05 -24.225 140.275 -21.3 149.775 0.0H163.15L128.9 -73.875L94.65 0.0H108.025L117.72500000000001 -21.925L117.9 -24.525000000000002Z M205.65 -33.375 227.9 0.0H242.15L218.4 -33.375ZM191.15 -70.0V0.0H203.025V-70.0ZM198.225 -59.75H212.275Q216.35000000000002 -59.75 219.38750000000002 -58.3625Q222.425 -56.975 224.125 -54.3625Q225.82500000000002 -51.75 225.82500000000002 -48.0Q225.82500000000002 -44.275000000000006 224.125 -41.650000000000006Q222.425 -39.025000000000006 219.38750000000002 -37.6375Q216.35000000000002 -36.25 212.275 -36.25H198.225V-26.5H212.775Q220.45000000000002 -26.5 226.07500000000002 -29.1875Q231.70000000000002 -31.875 234.82500000000002 -36.8Q237.95000000000002 -41.725 237.95000000000002 -48.25Q237.95000000000002 -54.875 234.82500000000002 -59.75Q231.70000000000002 -64.625 226.07500000000002 -67.3125Q220.45000000000002 -70.0 212.775 -70.0H198.225Z M283.7 -42.625 305.025 -6.5 326.34999999999997 -42.625 331.15 0.0H343.4L333.775 -73.5L305.025 -26.025000000000002L276.275 -73.5L266.65 0.0H278.9Z M383.525 -35.0Q383.525 -42.225 386.5875 -47.837500000000006Q389.65 -53.45 395.025 -56.6875Q400.4 -59.925000000000004 407.325 -59.925000000000004Q414.4 -59.925000000000004 419.725 -56.6875Q425.05 -53.45 428.0875 -47.837500000000006Q431.125 -42.225 431.125 -35.0Q431.125 -27.8 428.0625 -22.175Q425.0 -16.55 419.6625 -13.3125Q414.325 -10.075000000000001 407.325 -10.075000000000001Q400.4 -10.075000000000001 395.025 -13.3125Q389.65 -16.55 386.5875 -22.175Q383.525 -27.8 383.525 -35.0ZM370.95 -35.0Q370.95 -27.200000000000003 373.65 -20.512500000000003Q376.34999999999997 -13.825000000000001 381.25 -8.912500000000001Q386.15 -4.0 392.8125 -1.25Q399.47499999999997 1.5 407.325 1.5Q415.25 1.5 421.875 -1.25Q428.5 -4.0 433.4 -8.912500000000001Q438.3 -13.825000000000001 441.0 -20.512500000000003Q443.7 -27.200000000000003 443.7 -35.0Q443.7 -42.875 440.98749999999995 -49.4875Q438.275 -56.1 433.35 -60.962500000000006Q428.425 -65.825 421.8125 -68.5375Q415.2 -71.25 407.325 -71.25Q399.575 -71.25 392.92499999999995 -68.5375Q386.275 -65.825 381.35 -60.962500000000006Q376.425 -56.1 373.6875 -49.4875Q370.95 -42.875 370.95 -35.0Z M526.375 -70.0V-23.0L475.25 -73.5V0.0H486.875V-47.0L538.0 3.5V-70.0Z M573.55 -70.0V0.0H585.55V-70.0Z"/></svg>
