<svg xmlns="http://www.w3.org/2000/svg" viewBox="3.75 -77.88 513.80 85.38"><path fill="#000" d="M12.450000000000001 -32.125H62.45V-43.0H12.450000000000001ZM54.75 -70.0V0.0H66.625V-70.0ZM7.75 -70.0V0.0H19.625V-70.0Z M98.60000000000001 -18.0H135.60000000000002L133.35000000000002 -27.950000000000003H100.85000000000001ZM116.9 -50.2 128.05 -24.225 128.275 -21.3 137.775 0.0H151.15L116.9 -73.875L82.65 0.0H96.025L105.72500000000001 -21.925L105.9 -24.525000000000002Z M181.65 -33.375 203.9 0.0H218.15L194.4 -33.375ZM167.15 -70.0V0.0H179.025V-70.0ZM174.225 -59.75H188.275Q192.35000000000002 -59.75 195.38750000000002 -58.3625Q198.425 -56.975 200.125 -54.3625Q201.82500000000002 -51.75 201.82500000000002 -48.0Q201.82500000000002 -44.275000000000006 200.125 -41.650000000000006Q198.425 -39.025000000000006 195.38750000000002 -37.6375Q192.35000000000002 -36.25 188.275 -36.25H174.225V-26.5H188.775Q196.45000000000002 -26.5 202.07500000000002 -29.1875Q207.70000000000002 -31.875 210.82500000000002 -36.8Q213.95000000000002 -41.725 213.95000000000002 -48.25Q213.95000000000002 -54.875 210.82500000000002 -59.75Q207.70000000000002 -64.625 202.07500000000002 -67.3125Q196.45000000000002 -70.0 188.775 -70.0H174.225Z M247.70000000000002 -42.625 269.025 -6.5 290.35 -42.625 295.15 0.0H307.4L297.775 -73.5L269.025 -26.025000000000002L240.275 -73.5L230.65 0.0H242.9Z M335.52500000000003 -35.0Q335.52500000000003 -42.225 338.58750000000003 -47.837500000000006Q341.65000000000003 -53.45 347.02500000000003 -56.6875Q352.40000000000003 -59.925000000000004 359.32500000000005 -59.925000000000004Q366.40000000000003 -59.925000000000004 371.725 -56.6875Q377.05000000000007 -53.45 380.0875000000001 -47.837500000000006Q383.12500000000006 -42.225 383.12500000000006 -35.0Q383.12500000000006 -27.8 380.06250000000006 -22.175Q377.00000000000006 -16.55 371.6625 -13.3125Q366.32500000000005 -10.075000000000001 359.32500000000005 -10.075000000000001Q352.40000000000003 -10.075000000000001 347.02500000000003 -13.3125Q341.65000000000003 -16.55 338.58750000000003 -22.175Q335.52500000000003 -27.8 335.52500000000003 -35.0ZM322.95000000000005 -35.0Q322.95000000000005 -27.200000000000003 325.65000000000003 -20.512500000000003Q328.35 -13.825000000000001 333.25 -8.912500000000001Q338.15000000000003 -4.0 344.8125 -1.25Q351.475 1.5 359.32500000000005 1.5Q367.25000000000006 1.5 373.87500000000006 -1.25Q380.50000000000006 -4.0 385.4000000000001 -8.912500000000001Q390.30000000000007 -13.825000000000001 393.00000000000006 -20.512500000000003Q395.70000000000005 -27.200000000000003 395.70000000000005 -35.0Q395.70000000000005 -42.875 392.98750000000007 -49.4875Q390.27500000000003 -56.1 385.35 -60.962500000000006Q380.42500000000007 -65.825 373.81250000000006 -68.5375Q367.20000000000005 -71.25 359.32500000000005 -71.25Q351.57500000000005 -71.25 344.92500000000007 -68.5375Q338.27500000000003 -65.825 333.35 -60.962500000000006Q328.42500000000007 -56.1 325.68750000000006 -49.4875Q322.95000000000005 -42.875 322.95000000000005 -35.0Z M466.37500000000006 -70.0V-23.0L415.25000000000006 -73.5V0.0H426.87500000000006V-47.0L478.00000000000006 3.5V-70.0Z M501.55000000000007 -70.0V0.0H513.5500000000001V-70.0Z"/></svg>
