<svg xmlns="http://www.w3.org/2000/svg" viewBox="3.60 -75.00 531.00 80.00">
  <path fill="#000" d="M7.6000000000000005 0.0V-70.0H19.1V0.0ZM52.1 0.0V-70.0H63.6V0.0ZM15.5 -31.0V-41.5H54.6V-31.0Z M85.60000000000001 0.0 114.4 -70.0H122.4L151.0 0.0H138.60000000000002L116.2 -56.7H120.4L97.80000000000001 0.0ZM99.80000000000001 -13.5V-23.5H136.9V-13.5Z M180.9 -29.700000000000003V-39.2H198.60000000000002Q203.9 -39.2 206.85000000000002 -41.95Q209.8 -44.7 209.8 -49.6Q209.8 -54.0 206.9 -57.0Q204.0 -60.0 198.70000000000002 -60.0H180.9V-70.0H199.20000000000002Q205.8 -70.0 210.8 -67.35Q215.8 -64.7 218.55 -60.150000000000006Q221.3 -55.6 221.3 -49.800000000000004Q221.3 -43.7 218.55 -39.2Q215.8 -34.7 210.8 -32.2Q205.8 -29.700000000000003 199.20000000000002 -29.700000000000003ZM173.0 0.0V-70.0H184.5V0.0ZM211.4 0.0 186.9 -30.400000000000002 197.60000000000002 -34.300000000000004 225.9 0.0Z M247.8 0.0V-70.0H255.8L284.90000000000003 -22.1H279.70000000000005L308.8 -70.0H316.8V0.0H305.3V-49.800000000000004L307.90000000000003 -49.1L286.3 -13.600000000000001H278.3L256.70000000000005 -49.1L259.3 -49.800000000000004V0.0Z M376.20000000000005 1.0Q368.70000000000005 1.0 362.20000000000005 -1.8000000000000003Q355.70000000000005 -4.6000000000000005 350.80000000000007 -9.55Q345.90000000000003 -14.5 343.15000000000003 -21.05Q340.40000000000003 -27.6 340.40000000000003 -35.1Q340.40000000000003 -42.6 343.15000000000003 -49.1Q345.90000000000003 -55.6 350.75 -60.55Q355.6 -65.5 362.05000000000007 -68.25Q368.50000000000006 -71.0 376.00000000000006 -71.0Q383.50000000000006 -71.0 389.95000000000005 -68.25Q396.40000000000003 -65.5 401.30000000000007 -60.55Q406.20000000000005 -55.6 408.95000000000005 -49.05Q411.70000000000005 -42.5 411.70000000000005 -35.0Q411.70000000000005 -27.5 408.95000000000005 -20.95Q406.20000000000005 -14.4 401.35 -9.5Q396.50000000000006 -4.6000000000000005 390.05000000000007 -1.8000000000000003Q383.6 1.0 376.20000000000005 1.0ZM376.00000000000006 -10.0Q383.1 -10.0 388.45000000000005 -13.200000000000001Q393.80000000000007 -16.400000000000002 396.85 -22.050000000000004Q399.90000000000003 -27.700000000000003 399.90000000000003 -35.1Q399.90000000000003 -40.6 398.15000000000003 -45.150000000000006Q396.40000000000003 -49.7 393.20000000000005 -53.050000000000004Q390.00000000000006 -56.400000000000006 385.6500000000001 -58.2Q381.30000000000007 -60.0 376.00000000000006 -60.0Q369.00000000000006 -60.0 363.65000000000003 -56.85Q358.3 -53.7 355.25 -48.1Q352.20000000000005 -42.5 352.20000000000005 -35.1Q352.20000000000005 -29.6 353.95000000000005 -24.950000000000003Q355.70000000000005 -20.3 358.85 -17.0Q362.00000000000006 -13.700000000000001 366.40000000000003 -11.850000000000001Q370.8 -10.0 376.00000000000006 -10.0Z M435.4000000000001 0.0V-70.0H443.4000000000001L446.9000000000001 -56.800000000000004V0.0ZM483.9000000000001 0.0 442.00000000000006 -54.7 443.4000000000001 -70.0 485.30000000000007 -15.3ZM483.9000000000001 0.0 480.4000000000001 -12.3V-70.0H491.9000000000001V0.0Z M519.1 0.0V-70.0H530.6V0.0Z"/>
</svg>
