<svg xmlns="http://www.w3.org/2000/svg" viewBox="3.75 -77.88 537.80 85.38">
  <path fill="#000" d="M12.450000000000001 -32.125H62.45V-43.0H12.450000000000001ZM54.75 -70.0V0.0H66.625V-70.0ZM7.75 -70.0V0.0H19.625V-70.0Z M102.60000000000001 -18.0H139.60000000000002L137.35000000000002 -27.950000000000003H104.85000000000001ZM120.9 -50.2 132.05 -24.225 132.275 -21.3 141.775 0.0H155.15L120.9 -73.875L86.65 0.0H100.025L109.72500000000001 -21.925L109.9 -24.525000000000002Z M189.65 -33.375 211.9 0.0H226.15L202.4 -33.375ZM175.15 -70.0V0.0H187.025V-70.0ZM182.225 -59.75H196.275Q200.35000000000002 -59.75 203.38750000000002 -58.3625Q206.425 -56.975 208.125 -54.3625Q209.82500000000002 -51.75 209.82500000000002 -48.0Q209.82500000000002 -44.275000000000006 208.125 -41.650000000000006Q206.425 -39.025000000000006 203.38750000000002 -37.6375Q200.35000000000002 -36.25 196.275 -36.25H182.225V-26.5H196.775Q204.45000000000002 -26.5 210.07500000000002 -29.1875Q215.70000000000002 -31.875 218.82500000000002 -36.8Q221.95000000000002 -41.725 221.95000000000002 -48.25Q221.95000000000002 -54.875 218.82500000000002 -59.75Q215.70000000000002 -64.625 210.07500000000002 -67.3125Q204.45000000000002 -70.0 196.775 -70.0H182.225Z M259.7 -42.625 281.025 -6.5 302.35 -42.625 307.15 0.0H319.4L309.775 -73.5L281.025 -26.025000000000002L252.275 -73.5L242.65 0.0H254.9Z M351.52500000000003 -35.0Q351.52500000000003 -42.225 354.58750000000003 -47.837500000000006Q357.65000000000003 -53.45 363.02500000000003 -56.6875Q368.40000000000003 -59.925000000000004 375.32500000000005 -59.925000000000004Q382.40000000000003 -59.925000000000004 387.725 -56.6875Q393.05000000000007 -53.45 396.0875000000001 -47.837500000000006Q399.12500000000006 -42.225 399.12500000000006 -35.0Q399.12500000000006 -27.8 396.06250000000006 -22.175Q393.00000000000006 -16.55 387.6625 -13.3125Q382.32500000000005 -10.075000000000001 375.32500000000005 -10.075000000000001Q368.40000000000003 -10.075000000000001 363.02500000000003 -13.3125Q357.65000000000003 -16.55 354.58750000000003 -22.175Q351.52500000000003 -27.8 351.52500000000003 -35.0ZM338.95000000000005 -35.0Q338.95000000000005 -27.200000000000003 341.65000000000003 -20.512500000000003Q344.35 -13.825000000000001 349.25 -8.912500000000001Q354.15000000000003 -4.0 360.8125 -1.25Q367.475 1.5 375.32500000000005 1.5Q383.25000000000006 1.5 389.87500000000006 -1.25Q396.50000000000006 -4.0 401.4000000000001 -8.912500000000001Q406.30000000000007 -13.825000000000001 409.00000000000006 -20.512500000000003Q411.70000000000005 -27.200000000000003 411.70000000000005 -35.0Q411.70000000000005 -42.875 408.98750000000007 -49.4875Q406.27500000000003 -56.1 401.35 -60.962500000000006Q396.42500000000007 -65.825 389.81250000000006 -68.5375Q383.20000000000005 -71.25 375.32500000000005 -71.25Q367.57500000000005 -71.25 360.92500000000007 -68.5375Q354.27500000000003 -65.825 349.35 -60.962500000000006Q344.42500000000007 -56.1 341.68750000000006 -49.4875Q338.95000000000005 -42.875 338.95000000000005 -35.0Z M486.37500000000006 -70.0V-23.0L435.25000000000006 -73.5V0.0H446.87500000000006V-47.0L498.00000000000006 3.5V-70.0Z M525.5500000000001 -70.0V0.0H537.5500000000001V-70.0Z"/>
</svg>
