<svg xmlns="http://www.w3.org/2000/svg" viewBox="3.50 -74.40 533.50 79.10">
  <path fill="#000" d="M63.0 -69.5V0.0H51.6V-30.400000000000002H18.900000000000002V0.0H7.5V-69.5H18.900000000000002V-39.7H51.6V-69.5Z M131.9 -14.200000000000001H102.8L97.8 0.0H85.9L110.8 -69.60000000000001H124.0L148.9 0.0H136.9ZM128.7 -23.5 117.4 -55.800000000000004 106.0 -23.5Z M207.79999999999998 0.0 191.79999999999998 -27.8H183.1V0.0H171.7V-69.5H195.7Q203.7 -69.5 209.25 -66.7Q214.79999999999998 -63.900000000000006 217.54999999999998 -59.2Q220.29999999999998 -54.5 220.29999999999998 -48.7Q220.29999999999998 -41.900000000000006 216.34999999999997 -36.35Q212.39999999999998 -30.8 204.2 -28.8L221.39999999999998 0.0ZM183.1 -36.9H195.7Q202.1 -36.9 205.35 -40.1Q208.6 -43.300000000000004 208.6 -48.7Q208.6 -54.1 205.39999999999998 -57.150000000000006Q202.2 -60.2 195.7 -60.2H183.1Z M320.09999999999997 -69.5V0.0H308.7V-47.6L287.5 0.0H279.59999999999997L258.29999999999995 -47.6V0.0H246.89999999999998V-69.5H259.2L283.59999999999997 -15.0L307.9 -69.5Z M343.29999999999995 -34.9Q343.29999999999995 -45.1 348.04999999999995 -53.2Q352.79999999999995 -61.300000000000004 360.94999999999993 -65.85000000000001Q369.09999999999997 -70.4 378.79999999999995 -70.4Q388.59999999999997 -70.4 396.75 -65.85000000000001Q404.9 -61.300000000000004 409.59999999999997 -53.2Q414.29999999999995 -45.1 414.29999999999995 -34.9Q414.29999999999995 -24.700000000000003 409.59999999999997 -16.55Q404.9 -8.4 396.75 -3.85Q388.59999999999997 0.7000000000000001 378.79999999999995 0.7000000000000001Q369.09999999999997 0.7000000000000001 360.94999999999993 -3.85Q352.79999999999995 -8.4 348.04999999999995 -16.55Q343.29999999999995 -24.700000000000003 343.29999999999995 -34.9ZM402.59999999999997 -34.9Q402.59999999999997 -42.6 399.54999999999995 -48.400000000000006Q396.5 -54.2 391.1 -57.300000000000004Q385.7 -60.400000000000006 378.79999999999995 -60.400000000000006Q371.9 -60.400000000000006 366.5 -57.300000000000004Q361.09999999999997 -54.2 358.04999999999995 -48.400000000000006Q354.99999999999994 -42.6 354.99999999999994 -34.9Q354.99999999999994 -27.200000000000003 358.04999999999995 -21.35Q361.09999999999997 -15.5 366.5 -12.350000000000001Q371.9 -9.200000000000001 378.79999999999995 -9.200000000000001Q385.7 -9.200000000000001 391.1 -12.350000000000001Q396.5 -15.5 399.54999999999995 -21.35Q402.59999999999997 -27.200000000000003 402.59999999999997 -34.9Z M494.6 0.0H483.2L448.9 -51.900000000000006V0.0H437.5V-69.60000000000001H448.9L483.2 -17.8V-69.60000000000001H494.6Z M533.0 -69.5V0.0H521.6V-69.5Z"/>
</svg>
