<svg xmlns="http://www.w3.org/2000/svg" viewBox="3.60 -74.00 501.00 78.00">
  <path fill="#000" d="M15.5 -26.400000000000002V-36.4H33.0Q36.55491329479769 -36.4 39.32774566473989 -37.83030303030303Q42.10057803468209 -39.260606060606065 43.70028901734105 -41.906666666666666Q45.300000000000004 -44.552727272727275 45.300000000000004 -48.2Q45.300000000000004 -51.84727272727273 43.70028901734105 -54.49333333333334Q42.10057803468209 -57.13939393939394 39.32774566473989 -58.56969696969697Q36.55491329479769 -60.0 33.0 -60.0H15.5V-70.0H33.6Q40.2 -70.0 45.45 -67.30000000000001Q50.7 -64.60000000000001 53.75 -59.71951219512196Q56.800000000000004 -54.83902439024391 56.800000000000004 -48.21951219512195Q56.800000000000004 -41.6 53.75 -36.7Q50.7 -31.8 45.45 -29.1Q40.2 -26.400000000000002 33.6 -26.400000000000002ZM7.6000000000000005 0.0V-70.0H19.1V0.0Z M87.9 -29.700000000000003V-39.2H105.60000000000001Q110.9 -39.2 113.85000000000001 -41.95Q116.80000000000001 -44.7 116.80000000000001 -49.6Q116.80000000000001 -54.0 113.9 -57.0Q111.0 -60.0 105.70000000000002 -60.0H87.9V-70.0H106.20000000000002Q112.80000000000001 -70.0 117.80000000000001 -67.35Q122.80000000000001 -64.7 125.55000000000001 -60.150000000000006Q128.3 -55.6 128.3 -49.800000000000004Q128.3 -43.7 125.55000000000001 -39.2Q122.80000000000001 -34.7 117.80000000000001 -32.2Q112.80000000000001 -29.700000000000003 106.20000000000002 -29.700000000000003ZM80.0 0.0V-70.0H91.5V0.0ZM118.4 0.0 93.9 -30.400000000000002 104.60000000000001 -34.300000000000004 132.9 0.0Z M154.8 0.0V-70.0H166.3V0.0Z M193.50000000000003 0.0V-70.0H201.50000000000003L230.60000000000002 -22.1H225.40000000000003L254.50000000000006 -70.0H262.50000000000006V0.0H251.00000000000006V-49.800000000000004L253.60000000000002 -49.1L232.00000000000003 -13.600000000000001H224.00000000000003L202.40000000000003 -49.1L205.00000000000003 -49.800000000000004V0.0Z M289.70000000000005 0.0V-70.0H301.20000000000005V0.0Z M346.0 0.0V-68.0H357.5V0.0ZM323.2 -59.5V-70.0H380.3V-59.5Z M402.30000000000007 0.0V-70.0H413.80000000000007V0.0Z M464.1 0.0 435.8 -70.0H448.3L470.40000000000003 -13.3H466.00000000000006L488.30000000000007 -70.0H500.6L472.1 0.0Z"/>
</svg>
