<svg xmlns="http://www.w3.org/2000/svg" viewBox="3.75 -77.50 459.50 85.38"><path fill="#000" d="M7.75 -70.0V0.0H19.625V-70.0ZM14.825000000000001 -59.625H28.875Q35.0 -59.625 38.712500000000006 -56.7625Q42.425000000000004 -53.900000000000006 42.425000000000004 -48.25Q42.425000000000004 -42.675000000000004 38.712500000000006 -39.775000000000006Q35.0 -36.875 28.875 -36.875H14.825000000000001V-26.5H28.875Q36.550000000000004 -26.5 42.175000000000004 -29.137500000000003Q47.800000000000004 -31.775000000000002 50.925000000000004 -36.6875Q54.050000000000004 -41.6 54.050000000000004 -48.25Q54.050000000000004 -55.0 50.925000000000004 -59.862500000000004Q47.800000000000004 -64.72500000000001 42.175000000000004 -67.36250000000001Q36.550000000000004 -70.0 28.875 -70.0H14.825000000000001Z M88.05000000000001 -33.375 110.30000000000001 0.0H124.55000000000001L100.80000000000001 -33.375ZM73.55000000000001 -70.0V0.0H85.42500000000001V-70.0ZM80.62500000000001 -59.75H94.67500000000001Q98.75000000000001 -59.75 101.78750000000002 -58.3625Q104.82500000000002 -56.975 106.52500000000002 -54.3625Q108.22500000000002 -51.75 108.22500000000002 -48.0Q108.22500000000002 -44.275000000000006 106.52500000000002 -41.650000000000006Q104.82500000000002 -39.025000000000006 101.78750000000002 -37.6375Q98.75000000000001 -36.25 94.67500000000001 -36.25H80.62500000000001V-26.5H95.17500000000001Q102.85000000000002 -26.5 108.47500000000002 -29.1875Q114.10000000000002 -31.875 117.22500000000002 -36.8Q120.35000000000002 -41.725 120.35000000000002 -48.25Q120.35000000000002 -54.875 117.22500000000002 -59.75Q114.10000000000002 -64.625 108.47500000000002 -67.3125Q102.85000000000002 -70.0 95.17500000000001 -70.0H80.62500000000001Z M141.05 -70.0V0.0H153.05V-70.0Z M189.60000000000002 -42.625 210.925 -6.5 232.25 -42.625 237.05 0.0H249.3L239.675 -73.5L210.925 -26.025000000000002L182.175 -73.5L172.55 0.0H184.8Z M268.85 -70.0V0.0H280.85V-70.0Z M297.35 -59.125H315.85V0.0H327.725V-59.125H346.225V-70.0H297.35Z M362.75 -70.0V0.0H374.75V-70.0Z M425.0 -20.8 404.375 -70.0H390.75L425.0 3.875L459.25 -70.0H445.625Z"/></svg>
