<svg xmlns="http://www.w3.org/2000/svg" viewBox="3.75 -77.50 487.50 85.38">
  <path fill="#000" d="M7.75 -70.0V0.0H19.625V-70.0ZM14.825000000000001 -59.625H28.875Q35.0 -59.625 38.712500000000006 -56.7625Q42.425000000000004 -53.900000000000006 42.425000000000004 -48.25Q42.425000000000004 -42.675000000000004 38.712500000000006 -39.775000000000006Q35.0 -36.875 28.875 -36.875H14.825000000000001V-26.5H28.875Q36.550000000000004 -26.5 42.175000000000004 -29.137500000000003Q47.800000000000004 -31.775000000000002 50.925000000000004 -36.6875Q54.050000000000004 -41.6 54.050000000000004 -48.25Q54.050000000000004 -55.0 50.925000000000004 -59.862500000000004Q47.800000000000004 -64.72500000000001 42.175000000000004 -67.36250000000001Q36.550000000000004 -70.0 28.875 -70.0H14.825000000000001Z M92.05000000000001 -33.375 114.30000000000001 0.0H128.55L104.80000000000001 -33.375ZM77.55000000000001 -70.0V0.0H89.42500000000001V-70.0ZM84.62500000000001 -59.75H98.67500000000001Q102.75000000000001 -59.75 105.78750000000002 -58.3625Q108.82500000000002 -56.975 110.52500000000002 -54.3625Q112.22500000000002 -51.75 112.22500000000002 -48.0Q112.22500000000002 -44.275000000000006 110.52500000000002 -41.650000000000006Q108.82500000000002 -39.025000000000006 105.78750000000002 -37.6375Q102.75000000000001 -36.25 98.67500000000001 -36.25H84.62500000000001V-26.5H99.17500000000001Q106.85000000000002 -26.5 112.47500000000002 -29.1875Q118.10000000000002 -31.875 121.22500000000002 -36.8Q124.35000000000002 -41.725 124.35000000000002 -48.25Q124.35000000000002 -54.875 121.22500000000002 -59.75Q118.10000000000002 -64.625 112.47500000000002 -67.3125Q106.85000000000002 -70.0 99.17500000000001 -70.0H84.62500000000001Z M149.05 -70.0V0.0H161.05V-70.0Z M201.60000000000002 -42.625 222.925 -6.5 244.25 -42.625 249.05 0.0H261.3L251.675 -73.5L222.925 -26.025000000000002L194.175 -73.5L184.55 0.0H196.8Z M284.85 -70.0V0.0H296.85V-70.0Z M317.35 -59.125H335.85V0.0H347.725V-59.125H366.225V-70.0H317.35Z M386.75 -70.0V0.0H398.75V-70.0Z M453.0 -20.8 432.375 -70.0H418.75L453.0 3.875L487.25 -70.0H473.625Z"/>
</svg>
