<svg xmlns="http://www.w3.org/2000/svg" viewBox="3.50 -73.50 498.40 77.50">
  <path fill="#000" d="M31.5 -28.200000000000003H18.900000000000002V0.0H7.5V-69.5H31.5Q39.5 -69.5 45.05 -66.75Q50.6 -64.0 53.35 -59.3Q56.1 -54.6 56.1 -48.800000000000004Q56.1 -43.5 53.6 -38.8Q51.1 -34.1 45.6 -31.150000000000002Q40.1 -28.200000000000003 31.5 -28.200000000000003ZM44.400000000000006 -48.800000000000004Q44.400000000000006 -60.2 31.5 -60.2H18.900000000000002V-37.5H31.5Q38.0 -37.5 41.2 -40.45Q44.400000000000006 -43.400000000000006 44.400000000000006 -48.800000000000004Z M115.1 0.0 99.1 -27.8H90.4V0.0H79.0V-69.5H103.0Q111.0 -69.5 116.55 -66.7Q122.1 -63.900000000000006 124.85 -59.2Q127.6 -54.5 127.6 -48.7Q127.6 -41.900000000000006 123.65 -36.35Q119.7 -30.8 111.5 -28.8L128.7 0.0ZM90.4 -36.9H103.0Q109.4 -36.9 112.65 -40.1Q115.9 -43.300000000000004 115.9 -48.7Q115.9 -54.1 112.7 -57.150000000000006Q109.5 -60.2 103.0 -60.2H90.4Z M165.6 -69.5V0.0H154.2V-69.5Z M265.8 -69.5V0.0H254.39999999999998V-47.6L233.2 0.0H225.3L204.0 -47.6V0.0H192.6V-69.5H204.9L229.3 -15.0L253.6 -69.5Z M304.2 -69.5V0.0H292.8V-69.5Z M376.1 -69.5V-60.2H357.6V0.0H346.20000000000005V-60.2H327.6V-69.5Z M411.0 -69.5V0.0H399.6V-69.5Z M497.9 -69.5 471.8 0.0H458.6L432.4 -69.5H444.6L465.2 -11.700000000000001L485.9 -69.5Z"/>
</svg>
