<svg xmlns="http://www.w3.org/2000/svg" viewBox="3.75 -77.50 543.50 85.38"><path fill="#000" d="M7.75 -70.0V0.0H19.625V-70.0ZM14.825000000000001 -59.625H28.875Q35.0 -59.625 38.712500000000006 -56.7625Q42.425000000000004 -53.900000000000006 42.425000000000004 -48.25Q42.425000000000004 -42.675000000000004 38.712500000000006 -39.775000000000006Q35.0 -36.875 28.875 -36.875H14.825000000000001V-26.5H28.875Q36.550000000000004 -26.5 42.175000000000004 -29.137500000000003Q47.800000000000004 -31.775000000000002 50.925000000000004 -36.6875Q54.050000000000004 -41.6 54.050000000000004 -48.25Q54.050000000000004 -55.0 50.925000000000004 -59.862500000000004Q47.800000000000004 -64.72500000000001 42.175000000000004 -67.36250000000001Q36.550000000000004 -70.0 28.875 -70.0H14.825000000000001Z M100.05000000000001 -33.375 122.30000000000001 0.0H136.55L112.80000000000001 -33.375ZM85.55000000000001 -70.0V0.0H97.42500000000001V-70.0ZM92.62500000000001 -59.75H106.67500000000001Q110.75000000000001 -59.75 113.78750000000002 -58.3625Q116.82500000000002 -56.975 118.52500000000002 -54.3625Q120.22500000000002 -51.75 120.22500000000002 -48.0Q120.22500000000002 -44.275000000000006 118.52500000000002 -41.650000000000006Q116.82500000000002 -39.025000000000006 113.78750000000002 -37.6375Q110.75000000000001 -36.25 106.67500000000001 -36.25H92.62500000000001V-26.5H107.17500000000001Q114.85000000000002 -26.5 120.47500000000002 -29.1875Q126.10000000000002 -31.875 129.22500000000002 -36.8Q132.35000000000002 -41.725 132.35000000000002 -48.25Q132.35000000000002 -54.875 129.22500000000002 -59.75Q126.10000000000002 -64.625 120.47500000000002 -67.3125Q114.85000000000002 -70.0 107.17500000000001 -70.0H92.62500000000001Z M165.05 -70.0V0.0H177.05V-70.0Z M225.60000000000002 -42.625 246.925 -6.5 268.25 -42.625 273.05 0.0H285.3L275.675 -73.5L246.925 -26.025000000000002L218.175 -73.5L208.55 0.0H220.8Z M316.85 -70.0V0.0H328.85V-70.0Z M357.35 -59.125H375.85V0.0H387.725V-59.125H406.225V-70.0H357.35Z M434.75 -70.0V0.0H446.75V-70.0Z M509.0 -20.8 488.375 -70.0H474.75L509.0 3.875L543.25 -70.0H529.625Z"/></svg>
