<svg xmlns="http://www.w3.org/2000/svg" viewBox="6.51 -74.00 544.91 78.00">
  <path fill="#000" d="M10.51311818943839 0.0V-70.0H37.84450963956413Q46.9512154233026 -70.0 53.48124476110646 -67.08109807208717Q60.01127409891032 -64.16219614417435 63.52240150880135 -58.68216680637049Q67.03352891869238 -53.20213746856664 67.03352891869238 -45.564333612740995Q67.03352891869238 -38.026529756915345 63.52240150880135 -32.53872590108969Q60.01127409891032 -27.050922045264045 53.48124476110646 -24.132020117351217Q46.9512154233026 -21.21311818943839 37.84450963956413 -21.21311818943839H16.004568315171834L20.45150880134116 -25.91341156747695V0.0ZM20.45150880134116 -24.931098072087178 16.004568315171834 -29.869195305951383H37.53780385582565Q47.13537300922045 -29.869195305951383 52.07303017602682 -33.98352891869237Q57.010687342833194 -38.097862531433364 57.010687342833194 -45.564333612740995Q57.010687342833194 -53.13080469404862 52.07303017602682 -57.237363788767816Q47.13537300922045 -61.34392288348701 37.53780385582565 -61.34392288348701H16.004568315171834L20.45150880134116 -66.28202011735122Z M94.71311818943839 0.0V-70.0H122.04450963956413Q135.6201173512154 -70.0 143.4268231349539 -63.527745180217934Q151.2335289186924 -57.055490360435876 151.2335289186924 -45.564333612740995Q151.2335289186924 -38.026529756915345 147.72240150880137 -32.5809513830679Q144.21127409891034 -27.13537300922045 137.68124476110648 -24.216471081307628Q131.1512154233026 -21.297569153394804 122.04450963956413 -21.297569153394804H100.20456831517184L104.65150880134117 -25.91341156747695V0.0ZM141.54178541492035 0.0 123.66404023470244 -25.400000000000002H134.44023470243087L152.4024308466052 0.0ZM104.65150880134117 -24.931098072087178 100.20456831517184 -29.78474434199497H121.73780385582566Q131.33537300922046 -29.78474434199497 136.27303017602682 -33.941303436714165Q141.21068734283318 -38.097862531433364 141.21068734283318 -45.564333612740995Q141.21068734283318 -53.13080469404862 136.27303017602682 -57.237363788767816Q131.33537300922046 -61.34392288348701 121.73780385582566 -61.34392288348701H100.20456831517184L104.65150880134117 -66.28202011735122Z M179.4131181894384 0.0V-70.0H189.35150880134117V0.0Z M222.4131181894384 0.0V-70.0H230.61584241408215L261.97347024308465 -17.120410729253983H257.6109807208718L288.615255658005 -70.0H296.8179798826488L296.90243084660517 0.0H287.3018440905281L287.21739312657166 -54.854610226320204H289.4530595138307L261.90456831517184 -8.46433361274099H257.32652975691536L229.50913663034368 -54.854610226320204H232.0137049455155V0.0Z M329.91311818943836 0.0V-70.0H339.85150880134114V0.0Z M386.7731768650461 0.0V-61.34392288348701H362.79999999999995V-70.0H420.68474434199493V-61.34392288348701H396.71156747694886V0.0Z M443.61311818943835 0.0V-70.0H453.55150880134113V0.0Z M506.8265297569153 0.0 476.0021374685666 -70.0H486.83168482816427L515.0826068734283 -5.400293378038558H508.93109807208714L537.4353730092204 -70.0H547.420410729254L516.6804694048617 0.0Z"/>
</svg>
