<svg xmlns="http://www.w3.org/2000/svg" width="24" height="24" fill="none" viewBox="0 0 24 24">
  <path fill="#000" d="M3.25 3.25 L9 3.25 L9 4.75 L4.75 4.75 L4.75 9 L3.25 9 Z M20.75 9 L19.25 9 L19.25 4.75 L15 4.75 L15 3.25 L20.75 3.25 Z M20.75 20.75 L15 20.75 L15 19.25 L19.25 19.25 L19.25 15 L20.75 15 Z M3.25 15 L4.75 15 L4.75 19.25 L9 19.25 L9 20.75 L3.25 20.75 Z M4.28033 3.21967 L10.78033 9.71967 L9.71967 10.78033 L3.21967 4.28033 Z M20.78033 4.28033 L14.28033 10.78033 L13.21967 9.71967 L19.71967 3.21967 Z M19.71967 20.78033 L13.21967 14.28033 L14.28033 13.21967 L20.78033 19.71967 Z M3.21967 19.71967 L9.71967 13.21967 L10.78033 14.28033 L4.28033 20.78033 Z"/>
</svg>
