<svg xmlns="http://www.w3.org/2000/svg" width="24" height="24" fill="none" viewBox="0 0 24 24">
  <path fill="#000" d="M10.75 6 L10.75 10.75 L6 10.75 L6 9.25 L9.25 9.25 L9.25 6 Z M14.75 6 L14.75 9.25 L18 9.25 L18 10.75 L13.25 10.75 L13.25 6 Z M9.25 18 L9.25 14.75 L6 14.75 L6 13.25 L10.75 13.25 L10.75 18 Z M13.25 18 L13.25 13.25 L18 13.25 L18 14.75 L14.75 14.75 L14.75 18 Z M4.28033 3.21967 L10.78033 9.71967 L9.71967 10.78033 L3.21967 4.28033 Z M20.78033 4.28033 L14.28033 10.78033 L13.21967 9.71967 L19.71967 3.21967 Z M19.71967 20.78033 L13.21967 14.28033 L14.28033 13.21967 L20.78033 19.71967 Z M3.21967 19.71967 L9.71967 13.21967 L10.78033 14.28033 L4.28033 20.78033 Z"/>
</svg>
