<svg xmlns="http://www.w3.org/2000/svg" width="24" height="24" fill="none" viewBox="0 0 24 24">
  <path fill="#000" fill-rule="evenodd" clip-rule="evenodd" d="M8.41016 3.745C7.70347 5.00294 7.2998 6.45431 7.2998 7.99988C7.29991 12.8047 11.1952 16.7001 16 16.7001C17.5458 16.7001 18.9958 16.2937 20.2539 15.5868C18.8678 18.7718 15.6952 20.9999 12 20.9999C7.0295 20.9999 3.0001 16.9704 3 11.9999C3 8.30549 5.22627 5.13155 8.41016 3.745ZM5.80566 7.77136C4.98226 8.97529 4.5 10.4312 4.5 11.9999C4.5001 16.1419 7.85793 19.4999 12 19.4999C13.5686 19.4999 15.0236 19.0166 16.2275 18.1932C16.1519 18.1949 16.0761 18.2001 16 18.2001C10.3668 18.2001 5.79991 13.6331 5.7998 7.99988C5.7998 7.92355 5.804 7.84729 5.80566 7.77136Z"/>
</svg>
