<svg xmlns="http://www.w3.org/2000/svg" width="24" height="24" fill="none" viewBox="0 0 24 24">
  <path fill="#000" fill-rule="evenodd" clip-rule="evenodd" d="M12.75 21.5H11.25V18.5H12.75V21.5ZM7.93066 17.1299L5.81055 19.25L4.75 18.1895L6.87012 16.0693L7.93066 17.1299ZM19.25 18.1895L18.1895 19.25L16.0693 17.1299L17.1299 16.0693L19.25 18.1895ZM12 7.5C14.4853 7.5 16.5 9.51472 16.5 12C16.5 14.4853 14.4853 16.5 12 16.5C9.51472 16.5 7.5 14.4853 7.5 12C7.5 9.51472 9.51472 7.5 12 7.5ZM12 9C10.3431 9 9 10.3431 9 12C9 13.6569 10.3431 15 12 15C13.6569 15 15 13.6569 15 12C15 10.3431 13.6569 9 12 9ZM5.5 12.75H2.5V11.25H5.5V12.75ZM21.5 12.75H18.5V11.25H21.5V12.75ZM7.93066 6.87012L6.87012 7.93066L4.75 5.81055L5.81055 4.75L7.93066 6.87012ZM19.25 5.81055L17.1299 7.93066L16.0693 6.87012L18.1895 4.75L19.25 5.81055ZM12.75 5.5H11.25V2.5H12.75V5.5Z"/>
</svg>
